HIERARCHY
ROOT root
{
	OFFSET	0	13.1	24.9
	CHANNELS 6  Xposition Yposition Zposition Xrotation Yrotation Zrotation
	JOINT spine_1
	{
		OFFSET	0	9.99999	0
		CHANNELS 3  Xrotation Yrotation Zrotation
		JOINT spine_2
		{
			OFFSET	0	112	-10
			CHANNELS 3  Xrotation Yrotation Zrotation
			JOINT spine_3
			{
				OFFSET	0	206.5	19.3
				CHANNELS 3  Xrotation Yrotation Zrotation
				JOINT spine_4
				{
					OFFSET	0	110.4	14.6
					CHANNELS 3  Xrotation Yrotation Zrotation
					JOINT neck_1
					{
						OFFSET	0	71.8	-50.3
						CHANNELS 3  Xrotation Yrotation Zrotation
						JOINT neck_2
						{
							OFFSET	0	86.2	-25.8
							CHANNELS 3  Xrotation Yrotation Zrotation
							JOINT head_ee
							{
								OFFSET	0	179.8	-8.7
								CHANNELS 3  Xrotation Yrotation Zrotation
								End Site
								{
									OFFSET	1	0	0
								}
							}
						}
					}
					JOINT left_clavicle
					{
						OFFSET	-43.2	22.4	-70.8
						CHANNELS 3  Xrotation Yrotation Zrotation
						JOINT left_shoulder
						{
							OFFSET	-93.9	-5.79999	48.7
							CHANNELS 3  Xrotation Yrotation Zrotation
							JOINT left_elbow
							{
								OFFSET	-291.4	-30.8	15.2
								CHANNELS 3  Xrotation Yrotation Zrotation
								JOINT left_lowarm_twist
								{
									OFFSET	-110.7	-3.89999	13.6
									CHANNELS 3  Xrotation Yrotation Zrotation
									JOINT left_hand
									{
										OFFSET	-110.7	-3.89999	13.6
										CHANNELS 3  Xrotation Yrotation Zrotation
										JOINT left_ee
										{
											OFFSET	-80.8	-5.10001	12.1
											CHANNELS 3  Xrotation Yrotation Zrotation
											End Site
											{
												OFFSET	1	0	0
											}
										}
									}
								}
							}
						}
					}
					JOINT right_clavicle
					{
						OFFSET	43.2	22.4	-70.8
						CHANNELS 3  Xrotation Yrotation Zrotation
						JOINT right_shoulder
						{
							OFFSET	93.9	-5.79999	48.7
							CHANNELS 3  Xrotation Yrotation Zrotation
							JOINT right_elbow
							{
								OFFSET	291.4	-30.8	15.2
								CHANNELS 3  Xrotation Yrotation Zrotation
								JOINT right_lowarm_twist
								{
									OFFSET	110.7	-3.89999	13.6
									CHANNELS 3  Xrotation Yrotation Zrotation
									JOINT right_hand
									{
										OFFSET	110.7	-3.89999	13.6
										CHANNELS 3  Xrotation Yrotation Zrotation
										JOINT right_ee
										{
											OFFSET	80.8	-5.10001	12.1
											CHANNELS 3  Xrotation Yrotation Zrotation
											End Site
											{
												OFFSET	1	0	0
											}
										}
									}
								}
							}
						}
					}
				}
			}
		}
	}
	JOINT left_hip
	{
		OFFSET	-82.8	-127.5	0.300001
		CHANNELS 3  Xrotation Yrotation Zrotation
		JOINT left_knee
		{
			OFFSET	-28.2	-396.7	2.2
			CHANNELS 3  Xrotation Yrotation Zrotation
			JOINT left_ankle
			{
				OFFSET	-11.7	-411.3	35.4
				CHANNELS 3  Xrotation Yrotation Zrotation
				JOINT left_toes
				{
					OFFSET	0	-60	-88.6
					CHANNELS 3  Xrotation Yrotation Zrotation
					JOINT left_foot_ee
					{
						OFFSET	-22.5	-16.5	-42.2
						CHANNELS 3  Xrotation Yrotation Zrotation
						End Site
						{
							OFFSET	1	0	0
						}
					}
				}
			}
		}
	}
	JOINT right_hip
	{
		OFFSET	82.8	-127.5	0.300001
		CHANNELS 3  Xrotation Yrotation Zrotation
		JOINT right_knee
		{
			OFFSET	28.2	-396.7	2.2
			CHANNELS 3  Xrotation Yrotation Zrotation
			JOINT right_ankle
			{
				OFFSET	11.7	-411.3	35.4
				CHANNELS 3  Xrotation Yrotation Zrotation
				JOINT right_toes
				{
					OFFSET	0	-60	-88.6
					CHANNELS 3  Xrotation Yrotation Zrotation
					JOINT right_foot_ee
					{
						OFFSET	22.5	-16.5	-42.2
						CHANNELS 3  Xrotation Yrotation Zrotation
						End Site
						{
							OFFSET	1	0	0
						}
					}
				}
			}
		}
	}
}
MOTION
Frames: 14
Frame Time: 0.02
804.636141954 599.399 -1629.65180042 171.977380357 74.4426417023 -170.522322085 -0.226354 -0.370337 -0.268232 -0.226383 -0.352518 -0.291254 -0.224548 -0.282027 -0.359942 -0.224572 -0.335334 -0.310884 -7.36972 -1.14684 -1.08429 -7.3668 -1.35655 -1.31867 -0.0 0.0 -0.0 2.00036 -16.0 2.37668 -1.48886 -28.4201 62.0869 2.27009 -48.348 1.01909 -30.6681 -2.01772 3.31314 1.3747 12.1125 13.8291 -0.0 0.0 -0.0 5.89624 9.62255 -11.0816 -34.9315 9.93177 -69.179 1.13822 29.4151 -0.298777 1.39018 -0.0469032 0.171354 2.26198 -16.2984 -21.0525 0.0 0.0 0.0 0.208889 -35.9149 1.75616 4.62158 -0.217717 -0.675459 11.7857 15.9729 -1.68181 -25.6405 0.0 0.0 -0.0 0.0 -0.0 11.8495 -7.91089 2.40592 -49.2914 1.16102 -7.24612 29.5348 -19.1135 3.93732 6.87314 -0.0 -0.0 0.0 0.0 0.0 
794.981324623 601.119 -1623.37398314 173.34592641 73.4354463475 -171.959596037 -0.17073 -0.411964 -0.285136 -0.170771 -0.392986 -0.310772 -0.168592 -0.31776 -0.387358 -0.168605 -0.374948 -0.332312 -7.61403 -2.25358 -1.64345 -7.60799 -3.0261 -2.11035 -0.0 0.0 -0.0 2.13063 -16.0744 2.64641 -0.794519 -26.8615 63.2475 2.28707 -48.5598 1.03179 -34.3907 -2.37532 3.62939 0.988593 11.8364 11.2179 -0.0 0.0 -0.0 6.0117 11.7364 -11.2108 -34.9367 8.59155 -70.5092 1.08126 28.1738 -0.271338 1.29754 -0.0439071 0.159901 2.44129 -16.6612 -22.3583 0.0 0.0 0.0 -0.0575596 -36.705 1.88168 5.0568 -0.241019 -0.738138 10.5342 16.4174 -1.51138 -26.7805 0.0 0.0 -0.0 0.0 -0.0 11.175 -9.50633 3.04372 -36.2407 0.245085 -5.46483 26.3738 -19.879 3.58484 3.48164 -0.0 -0.0 0.0 0.0 0.0 
792.644409383 601.061 -1619.45309939 174.869776708 73.7677814462 -173.667585545 -0.123005 -0.328406 -0.339302 -0.122993 -0.30615 -0.359512 -0.121007 -0.222879 -0.416295 -0.121134 -0.285827 -0.375871 -7.97157 -2.18132 -1.496 -7.967 -3.01154 -1.95576 -0.0 0.0 -0.0 2.30124 -16.1177 3.00513 0.602456 -23.3096 64.0494 2.26305 -48.2597 1.01383 -36.9164 -2.62935 3.83051 0.349229 13.6979 7.82702 -0.0 0.0 -0.0 5.90833 10.9464 -11.0367 -33.6985 7.35586 -70.6405 0.998952 26.328 -0.233646 1.18747 -0.0403233 0.1463 2.2319 -16.8604 -21.0219 0.0 0.0 0.0 0.0062197 -36.6459 1.93694 5.29676 -0.25407 -0.772622 11.4435 16.8699 -1.6388 -26.9624 0.0 0.0 -0.0 0.0 -0.0 10.9393 -10.5873 3.42886 -26.2152 -0.170326 -3.98442 22.4146 -20.6952 3.11495 -0.495863 0.0 0.0 0.0 0.0 0.0 
787.418156989 599.906 -1616.54272099 175.20824102 71.8903582877 -174.286926418 -0.0926831 -0.229404 -0.284521 -0.0926629 -0.210835 -0.298542 -0.0915211 -0.142845 -0.336413 -0.0916262 -0.194182 -0.309632 -8.80116 -1.36411 -0.690477 -8.80083 -2.07492 -0.992916 -0.0 0.0 -0.0 2.42915 -16.1815 3.27113 1.80337 -20.3104 64.8715 2.29081 -48.6062 1.0346 -38.7672 -2.82102 3.97072 -0.192395 16.3236 5.47217 -0.0 0.0 -0.0 5.58886 8.67913 -10.4881 -32.0705 6.043 -70.6499 0.890049 23.7926 -0.187506 0.83258 -0.0285904 0.10249 1.75771 -15.8394 -17.5917 0.0 0.0 0.0 0.110884 -35.3016 2.01383 3.39223 -0.154482 -0.497496 14.7721 20.3466 -2.11513 -26.4902 0.0 0.0 -0.0 0.0 -0.0 10.659 -11.5852 3.36619 -19.4344 -0.301939 -2.95281 17.97 -13.8588 2.49225 -3.61327 0.0 0.0 0.0 0.0 0.0 
783.013061999 600.921 -1614.75462343 176.434146884 72.5479689684 -175.512871189 0.0232443 -0.169083 -0.319984 0.023289 -0.148379 -0.330095 0.0241892 -0.0758383 -0.353875 0.0240382 -0.130774 -0.337457 -9.35637 -0.817595 -0.293883 -9.3566 -1.33314 -0.482823 -0.0 0.0 -0.0 2.27237 -16.5095 2.90548 2.49986 -17.8036 65.1283 2.29429 -48.6494 1.03721 -39.4312 -2.89087 4.01951 -0.327326 17.0884 4.95022 -0.0 0.0 -0.0 5.52321 7.48816 -10.4113 -30.1695 5.23711 -70.3812 0.807463 21.801 -0.155503 0.548565 -0.0190052 0.0674821 1.44155 -15.2476 -15.3478 0.0 0.0 0.0 0.298294 -34.5458 2.08626 2.84336 -0.127489 -0.41762 17.5973 22.6304 -2.51755 -26.1708 0.0 0.0 -0.0 0.0 -0.0 10.4926 -12.0251 3.30346 -14.3132 -0.320026 -2.16753 14.9137 -7.28522 2.08133 -6.61514 0.0 0.0 0.0 0.0 0.0 
775.903776249 598.657 -1613.57595205 177.11494335 73.2916122104 -176.492110069 -0.00942823 -0.110744 -0.214091 -0.009408 -0.0968968 -0.220704 -0.00901455 -0.0483091 -0.236147 -0.00908217 -0.0849977 -0.225554 -9.1212 -0.574495 -0.0922123 -9.12141 -1.01378 -0.225336 -0.0 0.0 -0.0 2.13335 -16.2524 2.63466 2.58011 -15.9493 65.1651 2.30523 -48.7845 1.04544 -40.585 -3.01359 4.10236 -0.66139 17.744 3.1845 -0.0 0.0 -0.0 5.55377 7.92577 -10.4531 -28.6336 4.59583 -69.9647 0.778937 21.0997 -0.14507 0.614396 -0.0212424 0.0755922 1.25508 -14.5855 -13.9203 0.0 0.0 0.0 0.403909 -35.7038 2.12452 2.03577 -0.0891694 -0.299641 18.7508 21.5252 -2.65666 -26.034 0.0 0.0 -0.0 0.0 -0.0 10.4143 -12.7655 3.40279 -10.0912 -0.282155 -1.52098 9.19847 -0.848411 1.32115 -7.97712 0.0 0.0 0.0 0.0 0.0 
772.118909464 598.068 -1615.13294597 178.46066273 73.8689501264 -178.105712662 0.0451445 -0.0849424 -0.0796321 0.0451444 -0.0797031 -0.0848758 0.0452658 -0.0601628 -0.0996841 0.04526 -0.075151 -0.0889315 -9.58354 -0.307106 0.265907 -9.58346 -0.758607 0.185797 -0.0 0.0 -0.0 2.02439 -16.3313 2.3949 2.66566 -14.5366 65.3527 2.30447 -48.7751 1.04486 -41.2929 -3.08971 4.15196 -0.869477 18.5613 2.27222 -0.0 0.0 -0.0 5.69314 8.08229 -10.7344 -27.6364 4.376 -70.3243 0.742162 20.1857 -0.132105 0.433211 -0.0150625 0.0532768 1.09555 -14.2862 -12.791 0.0 0.0 0.0 0.421298 -34.0528 1.43845 1.91125 -0.0834096 -0.281405 19.916 22.2762 -2.81784 -25.7652 0.0 0.0 -0.0 0.0 -0.0 10.3187 -13.0979 3.5338 -8.3055 -0.251821 -1.24866 8.06396 2.70006 1.1741 -8.99355 0.0 0.0 0.0 0.0 0.0 
770.014520556 598.343 -1615.75603289 179.953638808 73.7503635952 179.976428386 -0.064157 -0.0473639 0.0777553 -0.0641553 -0.0522157 0.0745838 -0.064225 -0.0667945 0.0618685 -0.0642256 -0.0561853 0.071641 -9.67859 -0.175812 0.385808 -9.67824 -0.59332 0.334288 -0.0 0.0 -0.0 1.83331 -16.3833 1.98282 2.89559 -13.4686 65.3761 2.32668 -49.0472 1.06161 -41.5516 -3.11767 4.16985 -0.906 18.591 2.06522 -0.0 0.0 -0.0 5.77264 8.37954 -10.8852 -27.0253 4.35811 -70.9736 0.724498 19.7428 -0.126074 0.440339 -0.0153066 0.0541545 1.01277 -14.0161 -12.1644 0.0 0.0 0.0 1.19527 -34.1087 1.87957 1.32576 -0.0568596 -0.195491 20.1462 22.2142 -2.84682 -25.9348 0.0 0.0 -0.0 0.0 -0.0 10.262 -14.3418 3.68652 -6.55642 -0.213893 -0.982936 6.29241 5.35828 0.930847 -9.84846 0.0 0.0 0.0 0.0 0.0 
756.900466204 593.544 -1614.57306031 -176.996031035 69.9448912843 176.638502333 -0.237017 -0.0358478 0.178429 -0.237001 -0.0471291 0.175786 -0.237142 -0.0836924 0.161609 -0.237174 -0.0571189 0.172799 -3.80148 1.87124 1.24919 -3.79638 2.45627 1.58031 -0.0 0.0 -0.0 0.584917 -16.7954 -0.722934 3.36887 -11.9977 67.1307 2.4207 -50.1667 1.13322 -42.0424 -3.17095 4.20346 0.579505 12.7391 8.92483 -0.0 0.0 -0.0 5.33934 8.49982 -9.97919 -24.7596 2.48654 -72.1829 0.926475 24.6523 -0.202452 3.73151 -0.116447 0.462316 2.04062 -12.4382 -18.3451 0.0 0.0 0.0 0.80844 -36.1777 0.491488 3.42496 -0.156117 -0.502252 18.9112 19.979 -2.66035 -27.2671 0.0 0.0 -0.0 0.0 -0.0 10.078 -15.3473 3.0591 -5.15251 -0.177589 -0.770551 7.95405 9.43457 1.19321 -10.6663 0.0 0.0 0.0 0.0 0.0 
748.876204901 592.278 -1614.40608141 -177.364392052 68.4095895583 176.94641966 -0.246971 -0.0954584 0.163998 -0.246962 -0.105701 0.157591 -0.247257 -0.13703 0.131265 -0.247263 -0.114579 0.151259 -3.8292 2.9251 0.850955 -3.82148 4.68805 1.33484 -0.0 0.0 -0.0 0.0821912 -18.2925 -1.96707 2.66928 -11.6248 68.1164 2.23885 -47.9537 0.995819 -40.6394 -3.01941 4.1062 1.04844 10.9288 11.272 -0.0 0.0 -0.0 5.21733 9.35614 -9.67807 -23.3018 2.6936 -72.3159 0.92481 24.6133 -0.201758 5.48958 -0.160815 0.682503 2.27851 -13.282 -20.2214 0.0 0.0 0.0 0.149565 -35.318 -0.346317 2.47932 -0.11001 -0.364505 21.5059 17.9605 -2.96973 -27.2726 0.0 0.0 -0.0 0.0 -0.0 9.3976 -18.8223 2.99363 -5.17297 -0.178156 -0.77364 12.0877 7.04013 1.76369 -10.3337 0.0 0.0 0.0 0.0 0.0 
748.839168874 592.278 -1614.56556822 -177.360757049 68.4407927073 176.942510795 -0.246971 -0.0954584 0.163998 -0.246962 -0.105701 0.157591 -0.247257 -0.13703 0.131265 -0.247263 -0.114579 0.151259 -3.8292 2.9251 0.850955 -3.82148 4.68805 1.33484 -0.0 0.0 -0.0 0.0821912 -18.2925 -1.96707 2.66928 -11.6248 68.1164 2.23885 -47.9537 0.995819 -40.6394 -3.01941 4.1062 1.04844 10.9288 11.272 -0.0 0.0 -0.0 5.21733 9.35614 -9.67807 -23.3018 2.6936 -72.3159 0.92481 24.6133 -0.201758 5.48958 -0.160815 0.682503 2.27851 -13.282 -20.2214 0.0 0.0 0.0 0.149565 -35.318 -0.346317 2.47932 -0.11001 -0.364505 21.5059 17.9605 -2.96973 -27.2726 0.0 0.0 -0.0 0.0 -0.0 9.3976 -18.8223 2.99363 -5.17297 -0.178156 -0.77364 12.0877 7.04013 1.76369 -10.3337 0.0 0.0 0.0 0.0 0.0 
743.49181218 591.432 -1615.52546162 -177.256111662 68.4627604139 176.719649218 -0.277898 -0.114052 0.194955 -0.277886 -0.126226 0.187303 -0.278305 -0.163533 0.155796 -0.278313 -0.136875 0.179668 -3.65097 3.02765 -0.448892 -3.63712 5.86883 0.00211325 -0.0 0.0 -0.0 -0.205677 -19.6925 -2.74572 1.90695 -11.5343 69.2452 2.09878 -46.1087 0.893312 -39.2854 -2.87549 4.00887 1.26547 9.65491 12.2233 -0.0 0.0 -0.0 5.19026 9.4375 -9.61699 -23.3491 3.12233 -72.5565 0.949855 25.198 -0.212305 6.53796 -0.184048 0.814408 2.50902 -12.7299 -21.6113 0.0 0.0 0.0 0.116389 -34.4977 -0.0743061 1.64308 -0.0711397 -0.242087 22.7941 18.1336 -3.13108 -26.9229 0.0 0.0 -0.0 0.0 -0.0 8.96181 -20.2282 2.53833 -5.03601 -0.174342 -0.752966 13.2727 6.02336 1.91861 -10.514 0.0 0.0 0.0 0.0 0.0 
736.154416359 590.81 -1618.83919092 -178.298946171 67.7059913244 177.737802664 -0.285754 -0.135329 0.109639 -0.285758 -0.142031 0.100805 -0.286019 -0.160387 0.067902 -0.285995 -0.14765 0.09238 -3.94712 3.3368 -1.2656 -3.92278 7.06705 -0.776948 -0.0 0.0 -0.0 -0.657925 -20.277 -3.79075 1.3494 -11.2162 69.8576 1.97952 -44.4338 0.808575 -38.2791 -2.77003 3.93434 1.42613 8.73814 12.9478 -0.0 0.0 -0.0 5.13127 9.52025 -9.48925 -23.4244 3.44433 -72.9961 0.962695 25.4956 -0.217802 7.21115 -0.197692 0.899319 2.63367 -13.0109 -22.5564 0.0 0.0 0.0 0.0802126 -33.9657 -0.228159 1.04444 -0.0444153 -0.154117 23.6811 17.7472 -3.23519 -26.8297 0.0 0.0 -0.0 0.0 -0.0 8.0147 -21.2109 2.06507 -5.37019 -0.183559 -0.803423 14.9342 4.33565 2.12946 -10.7554 0.0 0.0 0.0 0.0 0.0 
730.216266728 589.96 -1620.63275416 -178.631945136 67.3323745699 178.006880433 -0.187166 -0.14675 0.135353 -0.187169 -0.155065 0.12574 -0.187522 -0.178324 0.0897571 -0.187497 -0.16191 0.116794 -4.038 3.65688 -1.82892 -4.002 8.08443 -1.30112 -0.0 0.0 -0.0 -0.570699 -21.1971 -3.70698 0.510696 -11.2126 70.7154 1.86596 -42.7443 0.730272 -37.5456 -2.694 3.87887 1.55053 8.02467 13.5132 -0.0 0.0 -0.0 5.0834 9.58 -9.38597 -23.0621 3.65922 -72.9101 1.01433 26.6774 -0.240506 7.75796 -0.208039 0.968402 2.73214 -13.011 -23.2367 0.0 0.0 0.0 0.104666 -33.3906 -0.145246 0.761607 -0.03211 -0.112461 24.4787 17.5076 -3.32878 -26.732 0.0 0.0 -0.0 0.0 -0.0 7.79145 -22.1778 2.09889 -6.14414 -0.203772 -0.920476 16.4783 3.21075 2.32473 -10.7989 0.0 0.0 0.0 0.0 0.0 
